# xmcd
#
# Track frame offsets:
#	150
#	10433
#	21189
#	32021
#	45197
#	54461
#	62683
#	74448
#	85880
#	95555
#	105745
#	117831
#	128210
#	139198
#	150510
#	162380
#	173295
#	187358
#	197546
#	207827
#	222415
#	232090
#	240617
#	251640
#	261318
#
# Disc length: 3620 seconds
#
# Revision: 1
# Processed by: cddbd v1.5.2PL0 Copyright (c) Steve Scherf et al.
# Submitted via: audiograbber 1.83.01
#
DISCID=640e2219
DTITLE=Various Artist - I Dig 'Em All - The Swan Record Story  [CD2)
DYEAR=2014
DGENRE=Oldies
TTITLE0=Rockin' Rebels   - Wild Weekend 
TTITLE1=Danny and The Juniors - A Thousand Miles Away 
TTITLE2=Freddy Cannon - Transistor Sister 
TTITLE3=Barry Petri - Pretty Little Angel 
TTITLE4=Firesiders   - No One Cares For Me 
TTITLE5=Artie Sullivan - It's Time 
TTITLE6=Ron Hoffman - Sleep Baby Sleep 
TTITLE7=Frankie Grier Quartet   - Oh Gloria 
TTITLE8=Dickie Doo and The Don'ts - Teardrops Will Fall 
TTITLE9=Frank Slay - Flying Circle 
TTITLE10=Ginger Davis and The Snaps - I'm No Run Around 
TTITLE11=Teddy and The Twilights - I'm Just Your Clown 
TTITLE12=Freddy Cannon - Buzz Buzz A-Diddle-It 
TTITLE13=Lee Andrews - I've Got A Right To Cry 
TTITLE14=Little Jimmy Rivers and The Tops - Puppy Love 
TTITLE15=Tams   - Valley Of Love 
TTITLE16=Ronnie Dawson - Hazel 
TTITLE17=Tony Valentino - Big Big Woman 
TTITLE18=Mary Swan - My Heart Belongs To Only You 
TTITLE19=Danny and The Juniors With Freddy Cannon - Twistin' All Night Long 
TTITLE20=Dicky Doo and The Don'ts - Nee Nee Na Na Na Na Nu Nu
TTITLE21=Quaker City Boys   - Teasin'
TTITLE22=Freddy Cannon - Muskrat Ramble 
TTITLE23=Cody Brennan and The Temptations - Ruby Baby 
TTITLE24=Billy and Lillie - Lah Dee Dah 
EXTD=
EXTT0=
EXTT1=
EXTT2=
EXTT3=
EXTT4=
EXTT5=
EXTT6=
EXTT7=
EXTT8=
EXTT9=
EXTT10=
EXTT11=
EXTT12=
EXTT13=
EXTT14=
EXTT15=
EXTT16=
EXTT17=
EXTT18=
EXTT19=
EXTT20=
EXTT21=
EXTT22=
EXTT23=
EXTT24=
PLAYORDER=
